<svg width="200" height="33" viewBox="0 0 200 33" fill="none" xmlns="http://www.w3.org/2000/svg">
<rect y="0.5" width="200" height="32" rx="5" fill="#22272B"/>
<rect x="0.5" y="1" width="199" height="31" rx="4.5" stroke="#A6C5E2" stroke-opacity="0.16"/>
<path d="M39.5568 11.3469V21.3H38.2443V12.4269H33.3361V21.3H32.0168V11.3469H39.5568ZM41.423 17.6838V17.5266C41.423 16.9933 41.5005 16.4989 41.6555 16.0432C41.8104 15.5829 42.0337 15.1841 42.3254 14.8469C42.617 14.5051 42.9702 14.2407 43.3849 14.0539C43.7997 13.8625 44.2645 13.7668 44.7795 13.7668C45.299 13.7668 45.7661 13.8625 46.1808 14.0539C46.6001 14.2407 46.9556 14.5051 47.2473 14.8469C47.5435 15.1841 47.7691 15.5829 47.924 16.0432C48.079 16.4989 48.1564 16.9933 48.1564 17.5266V17.6838C48.1564 18.217 48.079 18.7114 47.924 19.1672C47.7691 19.6229 47.5435 20.0217 47.2473 20.3635C46.9556 20.7007 46.6024 20.965 46.1877 21.1564C45.7775 21.3433 45.3127 21.4367 44.7932 21.4367C44.2736 21.4367 43.8065 21.3433 43.3918 21.1564C42.9771 20.965 42.6216 20.7007 42.3254 20.3635C42.0337 20.0217 41.8104 19.6229 41.6555 19.1672C41.5005 18.7114 41.423 18.217 41.423 17.6838ZM42.6877 17.5266V17.6838C42.6877 18.0529 42.731 18.4016 42.8176 18.7297C42.9042 19.0532 43.034 19.3404 43.2072 19.591C43.3849 19.8417 43.606 20.0399 43.8703 20.1857C44.1346 20.327 44.4422 20.3976 44.7932 20.3976C45.1395 20.3976 45.4426 20.327 45.7023 20.1857C45.9667 20.0399 46.1854 19.8417 46.3586 19.591C46.5318 19.3404 46.6616 19.0532 46.7482 18.7297C46.8394 18.4016 46.8849 18.0529 46.8849 17.6838V17.5266C46.8849 17.162 46.8394 16.8179 46.7482 16.4943C46.6616 16.1662 46.5295 15.8768 46.3517 15.6262C46.1786 15.371 45.9598 15.1704 45.6955 15.0246C45.4357 14.8788 45.1304 14.8058 44.7795 14.8058C44.4331 14.8058 44.1278 14.8788 43.8635 15.0246C43.6037 15.1704 43.3849 15.371 43.2072 15.6262C43.034 15.8768 42.9042 16.1662 42.8176 16.4943C42.731 16.8179 42.6877 17.162 42.6877 17.5266ZM51.1096 19.2971L54.5207 13.9035H55.7922V21.3H54.5207V15.9064L51.1096 21.3H49.8517V13.9035H51.1096V19.2971ZM60.7824 20.3976C61.0832 20.3976 61.3612 20.3361 61.6164 20.2131C61.8716 20.09 62.0812 19.9214 62.2453 19.7072C62.4094 19.4885 62.5028 19.2401 62.5256 18.9621H63.7287C63.7059 19.3996 63.5578 19.8075 63.2844 20.1857C63.0155 20.5594 62.6623 20.8625 62.2248 21.0949C61.7873 21.3228 61.3065 21.4367 60.7824 21.4367C60.2264 21.4367 59.7411 21.3387 59.3264 21.1428C58.9162 20.9468 58.5744 20.6779 58.301 20.3361C58.0321 19.9943 57.8293 19.6024 57.6926 19.1603C57.5604 18.7137 57.4943 18.242 57.4943 17.7453V17.4582C57.4943 16.9614 57.5604 16.492 57.6926 16.05C57.8293 15.6034 58.0321 15.2092 58.301 14.8674C58.5744 14.5256 58.9162 14.2567 59.3264 14.0607C59.7411 13.8648 60.2264 13.7668 60.7824 13.7668C61.3612 13.7668 61.867 13.8853 62.3 14.1223C62.7329 14.3547 63.0724 14.6737 63.3185 15.0793C63.5692 15.4803 63.7059 15.9361 63.7287 16.4465H62.5256C62.5028 16.1411 62.4162 15.8654 62.2658 15.6193C62.12 15.3732 61.9195 15.1773 61.6642 15.0314C61.4136 14.881 61.1196 14.8058 60.7824 14.8058C60.395 14.8058 60.0692 14.8833 59.8049 15.0383C59.5451 15.1887 59.3377 15.3937 59.1828 15.6535C59.0324 15.9087 58.923 16.1935 58.8547 16.508C58.7909 16.8179 58.759 17.1346 58.759 17.4582V17.7453C58.759 18.0689 58.7909 18.3879 58.8547 18.7023C58.9185 19.0168 59.0256 19.3016 59.176 19.5568C59.3309 19.812 59.5383 20.0171 59.798 20.1721C60.0624 20.3224 60.3905 20.3976 60.7824 20.3976ZM66.5246 13.9035V21.3H65.2599V13.9035H66.5246ZM71.3781 13.9035L67.8713 18.1418H66.1008L65.9094 17.0344H67.3586L69.84 13.9035H71.3781ZM70.0178 21.3L67.2971 17.9504L68.1105 17.0344L71.6242 21.3H70.0178Z" fill="#8C9BAB"/>
<path fill-rule="evenodd" clip-rule="evenodd" d="M18.9573 18.5567L21.584 21.23C21.7017 21.3572 21.7652 21.5252 21.7611 21.6984C21.757 21.8716 21.6857 22.0365 21.5622 22.158C21.4387 22.2795 21.2727 22.3482 21.0994 22.3494C20.9262 22.3507 20.7592 22.2844 20.634 22.1647L18.0087 19.494C16.9957 20.2571 15.7306 20.6068 14.4695 20.4722C13.2084 20.3376 12.0456 19.7288 11.2165 18.7691C10.3874 17.8094 9.95403 16.5705 10.004 15.3032C10.0541 14.036 10.5838 12.8351 11.4859 11.9437C12.3881 11.0523 13.5953 10.5371 14.863 10.5023C16.1308 10.4675 17.3644 10.9158 18.3141 11.7563C19.2637 12.5969 19.8585 13.7669 19.9779 15.0295C20.0974 16.2921 19.7325 17.553 18.9573 18.5567ZM15 19.1667C15.9724 19.1667 16.9051 18.7804 17.5927 18.0927C18.2803 17.4051 18.6667 16.4725 18.6667 15.5C18.6667 14.5275 18.2803 13.5949 17.5927 12.9073C16.9051 12.2197 15.9724 11.8333 15 11.8333C14.0275 11.8333 13.0949 12.2197 12.4073 12.9073C11.7196 13.5949 11.3333 14.5275 11.3333 15.5C11.3333 16.4725 11.7196 17.4051 12.4073 18.0927C13.0949 18.7804 14.0275 19.1667 15 19.1667Z" fill="#8C9BAB"/>
</svg>
